<svg xmlns="http://www.w3.org/2000/svg" xmlns:xlink="http://www.w3.org/1999/xlink" version="1.1" id="Layer_1" x="0px" y="0px" viewBox="0 0 1500 1000" style="enable-background:new 0 0 1500 1000;" xml:space="preserve">
<g>
	<path d="M774.49,514.69c0,0,2.35-25.58,20.82-49c18.47-23.42,34.38-43.97,33.94-62.81c-0.44-18.84-6.76-27.82-26.68-46.22   c-12.57-10.72-22.5-16.65-23.71-34.54c0,0-7.88,17.29,6.06,36.26c13.95,18.97,31.56,40.23,0.65,67.13   c6.97-24.04,2.18-40.82-17.09-48.63c0,0,10.04,17.46,0.36,37.44C759.17,434.27,734.49,461.11,774.49,514.69z" fill="#ffffff"/>
	<path d="M736.16,245.12c0,0-2.35,25.58-20.82,49c-18.47,23.42-34.38,43.97-33.94,62.81c0.44,18.84,6.76,27.82,26.68,46.22   c12.57,10.72,22.5,16.65,23.71,34.54c0,0,7.88-17.29-6.06-36.26c-13.95-18.97-31.56-40.23-0.65-67.13   c-6.97,24.04-2.18,40.82,17.09,48.63c0,0-10.04-17.46-0.36-37.44C751.48,325.53,776.15,298.69,736.16,245.12z" fill="#ffffff"/>
	<path d="M317.23,660.65h-36.32l-4.32,10.01c-1.42,3.34-2.12,6.09-2.12,8.27c0,2.88,1.16,5,3.49,6.37   c1.36,0.81,4.73,1.42,10.08,1.82v2.81h-34.2v-2.81c3.69-0.55,6.72-2.08,9.1-4.59c2.37-2.5,5.31-7.67,8.79-15.51l36.78-82.04h1.44   l37.08,84.32c3.54,7.99,6.44,13.02,8.72,15.09c1.72,1.57,4.14,2.48,7.28,2.73v2.81h-49.74v-2.81h2.05c3.99,0,6.8-0.55,8.42-1.67   c1.11-0.81,1.67-1.97,1.67-3.49c0-0.91-0.15-1.84-0.45-2.81c-0.1-0.45-0.86-2.35-2.28-5.69L317.23,660.65z M314.65,655.04   l-15.32-35.41l-15.77,35.41H314.65z" fill="#ffffff"/>
	<path d="M404.78,643.06v28.81c0,5.56,0.34,9.06,1.02,10.5c0.68,1.44,1.88,2.59,3.6,3.45c1.72,0.86,4.93,1.29,9.63,1.29v2.81h-52.62   v-2.81c4.75,0,7.97-0.44,9.67-1.33c1.69-0.88,2.88-2.03,3.56-3.45c0.68-1.41,1.02-4.9,1.02-10.46v-66.73   c0-5.56-0.34-9.06-1.02-10.5c-0.68-1.44-1.88-2.59-3.6-3.45c-1.72-0.86-4.93-1.29-9.63-1.29v-2.81h47.77   c12.43,0,21.53,0.86,27.3,2.58c5.76,1.72,10.46,4.89,14.1,9.52c3.64,4.63,5.46,10.05,5.46,16.27c0,7.58-2.73,13.85-8.19,18.8   c-3.49,3.13-8.37,5.49-14.63,7.05l24.72,34.8c3.23,4.5,5.54,7.31,6.9,8.42c2.07,1.57,4.47,2.43,7.2,2.58v2.81h-32.38l-33.13-46.86   H404.78z M404.78,592.64v45.04h4.32c7.03,0,12.28-0.64,15.77-1.93c3.49-1.29,6.23-3.61,8.23-6.98c2-3.36,3-7.74,3-13.16   c0-7.83-1.83-13.62-5.5-17.36c-3.67-3.74-9.57-5.61-17.7-5.61H404.78z" fill="#ffffff"/>
	<path d="M476.48,689.92v-2.81h3.41c2.98,0,5.27-0.47,6.86-1.4c1.59-0.93,2.77-2.21,3.53-3.83c0.46-1.06,0.68-4.25,0.68-9.55v-67.64   c0-5.26-0.28-8.54-0.83-9.86c-0.56-1.31-1.68-2.47-3.37-3.45c-1.69-0.99-3.98-1.48-6.86-1.48h-3.41v-2.81h46.03   c12.28,0,22.17,1.67,29.65,5c9.15,4.09,16.09,10.29,20.81,18.58s7.09,17.67,7.09,28.13c0,7.23-1.16,13.89-3.49,19.98   c-2.33,6.09-5.33,11.12-9.02,15.09c-3.69,3.97-7.95,7.15-12.78,9.55c-4.83,2.4-10.73,4.26-17.7,5.57   c-3.08,0.61-7.94,0.91-14.56,0.91H476.48z M515.68,592.94v80.22c0,4.24,0.2,6.85,0.61,7.81c0.4,0.96,1.09,1.69,2.05,2.2   c1.36,0.76,3.34,1.14,5.91,1.14c8.44,0,14.89-2.88,19.33-8.64c6.07-7.78,9.1-19.87,9.1-36.24c0-13.2-2.07-23.73-6.22-31.62   c-3.29-6.17-7.51-10.36-12.66-12.59C530.17,593.65,524.12,592.89,515.68,592.94z" fill="#ffffff"/>
	<path d="M642.21,687.11v2.81h-53.76v-2.81h3.41c2.98,0,5.38-0.53,7.2-1.59c1.31-0.71,2.33-1.92,3.03-3.64   c0.55-1.21,0.83-4.4,0.83-9.55v-67.64c0-5.26-0.28-8.54-0.83-9.86c-0.56-1.31-1.68-2.47-3.37-3.45c-1.69-0.99-3.98-1.48-6.86-1.48   h-3.41v-2.81h53.76v2.81h-3.41c-2.98,0-5.38,0.53-7.2,1.59c-1.32,0.71-2.35,1.92-3.11,3.64c-0.56,1.21-0.83,4.4-0.83,9.55v67.64   c0,5.26,0.29,8.54,0.87,9.85c0.58,1.32,1.72,2.47,3.41,3.45c1.69,0.98,3.98,1.48,6.86,1.48H642.21z" fill="#ffffff"/>
	<path d="M704.5,585.66c16.38-0.61,29.68,4.17,39.92,14.33c10.24,10.16,15.35,22.87,15.35,38.14c0,13.04-3.82,24.52-11.45,34.43   c-10.11,13.14-24.39,19.71-42.84,19.71c-18.5,0-32.81-6.27-42.92-18.81c-7.99-9.91-11.98-21.66-11.98-35.26   c0-15.27,5.19-27.99,15.58-38.18S689.34,585.06,704.5,585.66z M705.41,590.51c-9.4,0-16.56,4.8-21.46,14.41   c-4,7.89-5.99,19.21-5.99,33.97c0,17.54,3.08,30.51,9.25,38.9c4.3,5.87,10.31,8.8,18.05,8.8c5.21,0,9.55-1.26,13.04-3.79   c4.45-3.23,7.91-8.4,10.39-15.51c2.48-7.1,3.71-16.37,3.71-27.79c0-13.6-1.26-23.77-3.79-30.52s-5.75-11.51-9.67-14.29   C715.03,591.9,710.52,590.51,705.41,590.51z" fill="#ffffff"/>
	<g>
		<path d="M242.86,550.72v47.17h-3.91c-2.94-12.31-8.43-21.74-16.46-28.3c-8.03-6.56-17.13-9.84-27.3-9.84    c-8.5,0-16.29,2.44-23.38,7.33c-7.09,4.88-12.28,11.27-15.56,19.17c-4.21,10.11-6.32,21.34-6.32,33.72    c0,12.18,1.54,23.27,4.62,33.27c3.08,10,7.9,17.56,14.45,22.68c6.56,5.12,15.05,7.68,25.49,7.68c8.56,0,16.41-1.87,23.53-5.62    s14.63-10.2,22.53-19.37v11.74c-7.63,7.96-15.57,13.73-23.83,17.31c-8.26,3.58-17.91,5.37-28.95,5.37    c-14.52,0-27.42-2.91-38.69-8.73c-11.28-5.82-19.97-14.18-26.09-25.09c-6.12-10.9-9.18-22.51-9.18-34.82    c0-12.98,3.4-25.29,10.19-36.93c6.79-11.64,15.96-20.67,27.5-27.09c11.54-6.42,23.8-9.64,36.78-9.64c9.57,0,19.67,2.08,30.31,6.22    c6.15,2.41,10.07,3.61,11.74,3.61c2.14,0,4-0.78,5.57-2.36c1.57-1.57,2.59-4.07,3.06-7.48H242.86z" fill="#ffffff"/>
	</g>
	<path d="M969.79,593.02v41.85h2.05c6.52,0,11.25-2.05,14.18-6.14c2.93-4.1,4.8-10.14,5.61-18.12h2.88v53.84h-2.88   c-0.61-5.87-1.88-10.67-3.83-14.41c-1.95-3.74-4.21-6.25-6.79-7.55c-2.58-1.29-6.32-1.93-11.22-1.93v28.97   c0,5.66,0.24,9.12,0.72,10.39c0.48,1.26,1.38,2.3,2.69,3.11c1.31,0.81,3.44,1.21,6.37,1.21h6.14c9.6,0,17.3-2.22,23.09-6.67   c5.79-4.45,9.94-11.22,12.47-20.32h2.81l-4.63,32.68h-88.87v-2.81H934c2.98,0,5.38-0.53,7.2-1.59c1.31-0.71,2.33-1.92,3.03-3.64   c0.55-1.21,0.83-4.4,0.83-9.55v-67.64c0-4.65-0.13-7.51-0.38-8.57c-0.51-1.77-1.44-3.13-2.81-4.09c-1.92-1.41-4.55-2.12-7.89-2.12   h-3.41v-2.81h86.06v30.4h-2.88c-1.47-7.43-3.52-12.76-6.18-16c-2.65-3.23-6.41-5.61-11.26-7.13c-2.83-0.91-8.14-1.36-15.92-1.36   H969.79z" fill="#ffffff"/>
	<path d="M1067.65,643.06v28.81c0,5.56,0.34,9.06,1.02,10.5c0.68,1.44,1.88,2.59,3.6,3.45c1.72,0.86,4.93,1.29,9.63,1.29v2.81   h-52.62v-2.81c4.75,0,7.97-0.44,9.67-1.33c1.69-0.88,2.88-2.03,3.56-3.45c0.68-1.41,1.02-4.9,1.02-10.46v-66.73   c0-5.56-0.34-9.06-1.02-10.5c-0.68-1.44-1.88-2.59-3.6-3.45c-1.72-0.86-4.93-1.29-9.63-1.29v-2.81h47.77   c12.43,0,21.53,0.86,27.3,2.58c5.76,1.72,10.46,4.89,14.1,9.52c3.64,4.63,5.46,10.05,5.46,16.27c0,7.58-2.73,13.85-8.19,18.8   c-3.49,3.13-8.37,5.49-14.63,7.05l24.72,34.8c3.23,4.5,5.54,7.31,6.9,8.42c2.07,1.57,4.47,2.43,7.2,2.58v2.81h-32.38l-33.13-46.86   H1067.65z M1067.65,592.64v45.04h4.32c7.03,0,12.28-0.64,15.77-1.93c3.49-1.29,6.23-3.61,8.23-6.98c2-3.36,3-7.74,3-13.16   c0-7.83-1.83-13.62-5.5-17.36c-3.67-3.74-9.57-5.61-17.7-5.61H1067.65z" fill="#ffffff"/>
	<path d="M1207.89,654.89l27.9-67.79h41.85v2.81h-3.34c-3.03,0-5.46,0.53-7.28,1.59c-1.27,0.71-2.28,1.89-3.04,3.56   c-0.55,1.21-0.83,4.37-0.83,9.48v67.79c0,5.26,0.28,8.54,0.83,9.85c0.56,1.32,1.7,2.47,3.41,3.45c1.72,0.98,4.02,1.48,6.9,1.48   h3.34v2.81h-53.68v-2.81h3.34c3.03,0,5.46-0.53,7.28-1.59c1.26-0.71,2.28-1.92,3.03-3.64c0.55-1.21,0.83-4.4,0.83-9.55v-76.21   l-39.43,93.8h-1.82l-40.04-93.11v72.41c0,5.05,0.13,8.16,0.38,9.32c0.66,2.53,2.08,4.59,4.28,6.18c2.2,1.59,5.65,2.39,10.35,2.39   v2.81h-35.18v-2.81h1.06c2.28,0.05,4.4-0.32,6.37-1.1c1.97-0.78,3.46-1.83,4.47-3.15c1.01-1.31,1.79-3.16,2.35-5.53   c0.1-0.55,0.15-3.13,0.15-7.74v-65.06c0-5.21-0.28-8.46-0.83-9.74c-0.56-1.29-1.69-2.43-3.41-3.41c-1.72-0.99-4.02-1.48-6.9-1.48   h-3.26v-2.81H1179L1207.89,654.89z" fill="#ffffff"/>
	<path d="M1340.4,660.65h-36.32l-4.32,10.01c-1.42,3.34-2.12,6.09-2.12,8.27c0,2.88,1.16,5,3.49,6.37   c1.36,0.81,4.72,1.42,10.08,1.82v2.81h-34.2v-2.81c3.69-0.55,6.72-2.08,9.1-4.59c2.38-2.5,5.31-7.67,8.8-15.51l36.77-82.04h1.44   l37.08,84.32c3.54,7.99,6.44,13.02,8.72,15.09c1.72,1.57,4.15,2.48,7.28,2.73v2.81h-49.74v-2.81h2.05c3.99,0,6.8-0.55,8.42-1.67   c1.11-0.81,1.67-1.97,1.67-3.49c0-0.91-0.15-1.84-0.45-2.81c-0.1-0.45-0.86-2.35-2.28-5.69L1340.4,660.65z M1337.82,655.04   l-15.31-35.41l-15.77,35.41H1337.82z" fill="#ffffff"/>
	<g>
		<path d="M778.28,689.92v-3.71h4.52c3.95,0,6.98-0.62,9.08-1.86c2.11-1.24,3.66-2.92,4.67-5.07c0.6-1.4,0.9-5.62,0.9-12.64v-89.52    c0-6.96-0.37-11.31-1.1-13.05c-0.74-1.74-2.23-3.26-4.47-4.57c-2.24-1.3-5.27-1.96-9.08-1.96h-4.52v-3.71h60.92    c16.26,0,29.34,2.21,39.24,6.62c12.11,5.42,21.29,13.62,27.55,24.59c6.25,10.97,9.38,23.38,9.38,37.23    c0,9.57-1.54,18.38-4.62,26.44c-3.08,8.06-7.06,14.72-11.94,19.97c-4.88,5.26-10.52,9.47-16.91,12.64    c-6.39,3.18-14.2,5.64-23.43,7.38c-4.08,0.8-10.5,1.2-19.27,1.2H778.28z M830.17,561.56v106.18c0,5.62,0.27,9.07,0.8,10.34    c0.53,1.27,1.44,2.24,2.71,2.91c1.81,1,4.42,1.51,7.83,1.51c11.17,0,19.7-3.81,25.59-11.44c8.03-10.3,12.04-26.29,12.04-47.97    c0-17.46-2.74-31.41-8.23-41.85c-4.35-8.16-9.94-13.71-16.76-16.66C849.33,562.5,841.34,561.5,830.17,561.56z" fill="#ffffff"/>
	</g>
	<path d="M303.34,754.41h-3.33v-19.17c0-1.51,0.09-3.37,0.28-5.56h-0.08c-0.32,1.29-0.6,2.21-0.86,2.77l-9.77,21.96h-1.63   l-9.75-21.8c-0.28-0.64-0.56-1.62-0.86-2.93h-0.08c0.11,1.14,0.16,3.01,0.16,5.6v19.13h-3.23v-28.58h4.42l8.77,19.93   c0.68,1.53,1.12,2.67,1.32,3.43h0.12c0.57-1.57,1.03-2.74,1.38-3.51l8.95-19.85h4.19V754.41z" fill="#ffffff"/>
	<path d="M365.42,754.41h-15.15v-28.58h14.51v3.03h-11.16v9.51h10.32v3.01h-10.32v10h11.8V754.41z" fill="#ffffff"/>
	<path d="M410.35,754.41v-28.58h7.89c10.07,0,15.11,4.65,15.11,13.93c0,4.41-1.4,7.96-4.19,10.63c-2.8,2.68-6.54,4.02-11.23,4.02   H410.35z M413.7,728.86v22.52h4.26c3.75,0,6.66-1,8.75-3.01c2.09-2.01,3.13-4.85,3.13-8.53c0-7.32-3.89-10.98-11.68-10.98H413.7z" fill="#ffffff"/>
	<path d="M481.75,754.41h-3.35v-28.58h3.35V754.41z" fill="#ffffff"/>
	<path d="M548.14,753.21c-2.11,1.12-4.74,1.67-7.89,1.67c-4.07,0-7.32-1.31-9.77-3.92c-2.44-2.62-3.67-6.05-3.67-10.3   c0-4.57,1.38-8.26,4.12-11.08c2.75-2.82,6.24-4.22,10.46-4.22c2.71,0,4.95,0.39,6.74,1.17v3.57c-2.05-1.14-4.3-1.71-6.78-1.71   c-3.28,0-5.94,1.09-7.98,3.29c-2.04,2.19-3.06,5.12-3.06,8.79c0,3.48,0.95,6.25,2.86,8.32c1.91,2.07,4.41,3.1,7.5,3.1   c2.87,0,5.35-0.64,7.45-1.91V753.21z" fill="#ffffff"/>
	<path d="M596.73,754.41h-3.35v-28.58h3.35V754.41z" fill="#ffffff"/>
	<path d="M666.71,754.41h-4.11l-14.71-22.78c-0.37-0.57-0.68-1.17-0.92-1.79h-0.12c0.11,0.61,0.16,1.92,0.16,3.92v20.65h-3.35   v-28.58h4.34l14.31,22.42c0.6,0.93,0.98,1.57,1.16,1.91h0.08c-0.13-0.82-0.2-2.23-0.2-4.21v-20.13h3.35V754.41z" fill="#ffffff"/>
	<path d="M725.15,754.88c-4.05,0-7.3-1.34-9.73-4c-2.44-2.67-3.66-6.15-3.66-10.42c0-4.6,1.24-8.26,3.73-11   c2.49-2.74,5.87-4.11,10.15-4.11c3.95,0,7.13,1.33,9.54,3.99c2.41,2.66,3.62,6.13,3.62,10.42c0,4.67-1.24,8.35-3.71,11.06   C732.6,753.53,729.29,754.88,725.15,754.88z M725.39,728.38c-3,0-5.44,1.08-7.31,3.25c-1.88,2.17-2.81,5.01-2.81,8.53   c0,3.52,0.91,6.36,2.74,8.5c1.83,2.15,4.21,3.22,7.14,3.22c3.14,0,5.61-1.02,7.41-3.07c1.81-2.05,2.71-4.91,2.71-8.59   c0-3.77-0.88-6.69-2.63-8.75C730.89,729.41,728.47,728.38,725.39,728.38z" fill="#ffffff"/>
	<path d="M782.49,753.25v-3.95c0.45,0.4,0.99,0.76,1.62,1.08c0.63,0.32,1.3,0.59,1.99,0.81c0.7,0.22,1.4,0.39,2.1,0.51   c0.71,0.12,1.36,0.18,1.95,0.18c2.06,0,3.6-0.38,4.61-1.14c1.01-0.76,1.52-1.86,1.52-3.3c0-0.77-0.17-1.44-0.51-2.01   c-0.34-0.57-0.81-1.09-1.4-1.56c-0.6-0.47-1.31-0.92-2.12-1.36c-0.82-0.43-1.7-0.89-2.64-1.36c-1-0.51-1.93-1.01-2.79-1.54   c-0.86-0.52-1.62-1.09-2.25-1.71c-0.64-0.63-1.14-1.33-1.51-2.12c-0.36-0.79-0.55-1.72-0.55-2.78c0-1.3,0.29-2.43,0.86-3.4   c0.57-0.96,1.32-1.76,2.25-2.38c0.93-0.63,1.99-1.09,3.18-1.4c1.19-0.3,2.4-0.46,3.64-0.46c2.82,0,4.87,0.34,6.16,1.01v3.77   c-1.69-1.17-3.85-1.75-6.5-1.75c-0.73,0-1.46,0.08-2.19,0.23c-0.73,0.15-1.38,0.4-1.95,0.75c-0.57,0.34-1.04,0.79-1.4,1.33   c-0.36,0.55-0.54,1.21-0.54,1.99c0,0.73,0.13,1.36,0.41,1.89c0.27,0.53,0.67,1.02,1.2,1.46c0.53,0.44,1.18,0.86,1.94,1.28   c0.76,0.41,1.64,0.86,2.64,1.36c1.02,0.51,1.99,1.04,2.91,1.59c0.92,0.56,1.72,1.17,2.41,1.85c0.69,0.67,1.24,1.43,1.65,2.25   s0.61,1.77,0.61,2.83c0,1.41-0.28,2.6-0.83,3.58c-0.55,0.98-1.29,1.77-2.23,2.38c-0.94,0.61-2.01,1.05-3.24,1.33   c-1.22,0.27-2.51,0.41-3.87,0.41c-0.45,0-1.01-0.04-1.67-0.11c-0.67-0.07-1.34-0.18-2.03-0.32c-0.69-0.14-1.35-0.31-1.96-0.52   C783.36,753.73,782.86,753.5,782.49,753.25z" fill="#ffffff"/>
	<path d="M915.43,754.41h-4.66l-11.04-13.07c-0.41-0.49-0.67-0.82-0.76-1h-0.08v14.07h-3.35v-28.58h3.35v13.43h0.08   c0.19-0.29,0.44-0.62,0.76-0.98l10.68-12.46h4.17l-12.26,13.71L915.43,754.41z" fill="#ffffff"/>
	<path d="M973.47,754.41h-14.83v-28.58H962v25.55h11.48V754.41z" fill="#ffffff"/>
	<path d="M1020.64,754.41h-3.35v-28.58h3.35V754.41z" fill="#ffffff"/>
	<path d="M1090.61,754.41h-4.11l-14.71-22.78c-0.37-0.57-0.68-1.17-0.92-1.79h-0.12c0.11,0.61,0.16,1.92,0.16,3.92v20.65h-3.35   v-28.58h4.34l14.31,22.42c0.6,0.93,0.98,1.57,1.16,1.91h0.08c-0.13-0.82-0.2-2.23-0.2-4.21v-20.13h3.35V754.41z" fill="#ffffff"/>
	<path d="M1140.88,754.41h-3.35v-28.58h3.35V754.41z" fill="#ffffff"/>
	<path d="M1207.71,754.41h-4.66l-11.04-13.07c-0.41-0.49-0.67-0.82-0.76-1h-0.08v14.07h-3.35v-28.58h3.35v13.43h0.08   c0.19-0.29,0.44-0.62,0.76-0.98l10.68-12.46h4.17l-12.26,13.71L1207.71,754.41z" fill="#ffffff"/>
	<path d="M1273.04,754.41h-3.71l-3.03-8.01h-12.12l-2.85,8.01h-3.73l10.96-28.58h3.47L1273.04,754.41z M1265.21,743.39l-4.48-12.18   c-0.15-0.4-0.29-1.04-0.44-1.91h-0.08c-0.13,0.81-0.29,1.45-0.46,1.91l-4.45,12.18H1265.21z" fill="#ffffff"/>
</g>
</svg>