<svg xmlns="http://www.w3.org/2000/svg" xmlns:xlink="http://www.w3.org/1999/xlink" version="1.1" id="Layer_1" x="0px" y="0px" viewBox="0 0 1000 1000" style="enable-background:new 0 0 1000 1000;" xml:space="preserve">
<style type="text/css">
	.st0{fill:url(#SVGID_1_);}
	.st1{fill:url(#SVGID_2_);}
	.st2{fill:url(#SVGID_3_);}
	.st3{fill:url(#SVGID_4_);}
</style>
<g>
	<g>
		
			<linearGradient id="SVGID_1_" gradientUnits="userSpaceOnUse" x1="632.3694" y1="563.1462" x2="592.6224" y2="193.831" gradientTransform="matrix(1 0 0 -1 0 1000)" fill="#ffffff">
			<stop offset="0" style="stop-color:#ffffff" fill="#ffffff"/>
			<stop offset="0.0554" style="stop-color:#ffffff" fill="#ffffff"/>
			<stop offset="0.1217" style="stop-color:#ffffff" fill="#ffffff"/>
			<stop offset="0.1903" style="stop-color:#ffffff" fill="#ffffff"/>
			<stop offset="0.2608" style="stop-color:#ffffff" fill="#ffffff"/>
			<stop offset="0.3339" style="stop-color:#ffffff" fill="#ffffff"/>
			<stop offset="0.4112" style="stop-color:#ffffff" fill="#ffffff"/>
			<stop offset="0.5" style="stop-color:#ffffff" fill="#ffffff"/>
			<stop offset="0.5581" style="stop-color:#ffffff" fill="#ffffff"/>
			<stop offset="0.6439" style="stop-color:#ffffff" fill="#ffffff"/>
			<stop offset="0.7469" style="stop-color:#ffffff" fill="#ffffff"/>
			<stop offset="0.8631" style="stop-color:#ffffff" fill="#ffffff"/>
			<stop offset="0.9891" style="stop-color:#ffffff" fill="#ffffff"/>
			<stop offset="1" style="stop-color:#ffffff" fill="#ffffff"/>
		</linearGradient>
		<path class="st0" d="M557.32,907.36c0,0,7.77-77.01,63.76-146.98c55.99-70.02,104.2-131.43,103.46-188.2    c-0.74-56.77-19.46-84-78.57-139.99c-37.31-32.66-66.89-50.83-70.02-104.75c0,0-24.11,51.85,17.11,109.4    c41.22,57.55,93.34,122.09,0,202.23c21.58-72.23,7.73-122.88-49.78-146.98c0,0,29.53,52.9,0,112.75    C513.76,664.69,439.09,744.83,557.32,907.36z" fill="#ffffff"/>
		
			<linearGradient id="SVGID_2_" gradientUnits="userSpaceOnUse" x1="593.2722" y1="567.3539" x2="553.5252" y2="198.0387" gradientTransform="matrix(1 0 0 -1 0 1000)" fill="#ffffff">
			<stop offset="0" style="stop-color:#ffffff" fill="#ffffff"/>
			<stop offset="0.0554" style="stop-color:#ffffff" fill="#ffffff"/>
			<stop offset="0.1217" style="stop-color:#ffffff" fill="#ffffff"/>
			<stop offset="0.1903" style="stop-color:#ffffff" fill="#ffffff"/>
			<stop offset="0.2608" style="stop-color:#ffffff" fill="#ffffff"/>
			<stop offset="0.3339" style="stop-color:#ffffff" fill="#ffffff"/>
			<stop offset="0.4112" style="stop-color:#ffffff" fill="#ffffff"/>
			<stop offset="0.5" style="stop-color:#ffffff" fill="#ffffff"/>
			<stop offset="0.5581" style="stop-color:#ffffff" fill="#ffffff"/>
			<stop offset="0.6439" style="stop-color:#ffffff" fill="#ffffff"/>
			<stop offset="0.7469" style="stop-color:#ffffff" fill="#ffffff"/>
			<stop offset="0.8631" style="stop-color:#ffffff" fill="#ffffff"/>
			<stop offset="0.9891" style="stop-color:#ffffff" fill="#ffffff"/>
			<stop offset="1" style="stop-color:#ffffff" fill="#ffffff"/>
		</linearGradient>
		<path class="st1" d="M608.66,599.37c0,0,20.2-51.34-14.03-109.67c-34.23-58.33-54.97-71.03-38.87-142.06    c0,0-1.56,49.91,23.83,93.85C604.93,485.32,658.44,535.33,608.66,599.37z" fill="#ffffff"/>
	</g>
	<g>
		
			<linearGradient id="SVGID_3_" gradientUnits="userSpaceOnUse" x1="404.8217" y1="793.8081" x2="369.4911" y2="436.0857" gradientTransform="matrix(1 0 0 -1 0 1000)" fill="#ffffff">
			<stop offset="0" style="stop-color:#ffffff" fill="#ffffff"/>
			<stop offset="0.0554" style="stop-color:#ffffff" fill="#ffffff"/>
			<stop offset="0.1217" style="stop-color:#ffffff" fill="#ffffff"/>
			<stop offset="0.1903" style="stop-color:#ffffff" fill="#ffffff"/>
			<stop offset="0.2608" style="stop-color:#ffffff" fill="#ffffff"/>
			<stop offset="0.3339" style="stop-color:#ffffff" fill="#ffffff"/>
			<stop offset="0.4112" style="stop-color:#ffffff" fill="#ffffff"/>
			<stop offset="0.5" style="stop-color:#ffffff" fill="#ffffff"/>
			<stop offset="0.5581" style="stop-color:#ffffff" fill="#ffffff"/>
			<stop offset="0.6439" style="stop-color:#ffffff" fill="#ffffff"/>
			<stop offset="0.7469" style="stop-color:#ffffff" fill="#ffffff"/>
			<stop offset="0.8631" style="stop-color:#ffffff" fill="#ffffff"/>
			<stop offset="0.9891" style="stop-color:#ffffff" fill="#ffffff"/>
			<stop offset="1" style="stop-color:#ffffff" fill="#ffffff"/>
		</linearGradient>
		<path class="st2" d="M442.68,92.64c0,0-7.77,77.01-63.76,146.98c-55.99,70.02-104.2,131.43-103.46,188.2    c0.74,56.77,19.46,84,78.57,139.99c37.31,32.66,66.89,50.83,70.02,104.75c0,0,24.11-51.85-17.11-109.4    c-41.22-57.55-93.34-122.09,0-202.23c-21.58,72.23-7.73,122.88,49.78,146.98c0,0-29.53-52.9,0-112.75    C486.24,335.26,560.91,255.17,442.68,92.64z" fill="#ffffff"/>
		
			<linearGradient id="SVGID_4_" gradientUnits="userSpaceOnUse" x1="442.3064" y1="790.1058" x2="406.9758" y2="432.3835" gradientTransform="matrix(1 0 0 -1 0 1000)" fill="#ffffff">
			<stop offset="0" style="stop-color:#ffffff" fill="#ffffff"/>
			<stop offset="0.0554" style="stop-color:#ffffff" fill="#ffffff"/>
			<stop offset="0.1217" style="stop-color:#ffffff" fill="#ffffff"/>
			<stop offset="0.1903" style="stop-color:#ffffff" fill="#ffffff"/>
			<stop offset="0.2608" style="stop-color:#ffffff" fill="#ffffff"/>
			<stop offset="0.3339" style="stop-color:#ffffff" fill="#ffffff"/>
			<stop offset="0.4112" style="stop-color:#ffffff" fill="#ffffff"/>
			<stop offset="0.5" style="stop-color:#ffffff" fill="#ffffff"/>
			<stop offset="0.5581" style="stop-color:#ffffff" fill="#ffffff"/>
			<stop offset="0.6439" style="stop-color:#ffffff" fill="#ffffff"/>
			<stop offset="0.7469" style="stop-color:#ffffff" fill="#ffffff"/>
			<stop offset="0.8631" style="stop-color:#ffffff" fill="#ffffff"/>
			<stop offset="0.9891" style="stop-color:#ffffff" fill="#ffffff"/>
			<stop offset="1" style="stop-color:#ffffff" fill="#ffffff"/>
		</linearGradient>
		<path class="st3" d="M391.34,400.59c0,0-20.2,51.34,14.03,109.67s54.97,71.03,38.87,142.06c0,0,1.56-49.91-23.83-93.85    C395.02,514.68,341.56,464.62,391.34,400.59z" fill="#ffffff"/>
	</g>
</g>
</svg>